<svg xmlns="http://www.w3.org/2000/svg" viewBox="0 0 120 120"><path d="M5 0a4.99 4.99 0 0 0-5 5v110a4.99 4.99 0 0 0 5 5h110a4.99 4.99 0 0 0 5-5V5a4.99 4.99 0 0 0-5-5H5zm5 22.5a2.5 2.5 0 0 1 1.768.732L44.19 55.654a24.89 24.89 0 0 1 13.31-5.529V25a2.5 2.5 0 1 1 5 0v25.125a24.89 24.89 0 0 1 13.311 5.529l32.422-32.422a2.5 2.5 0 0 1 3.535 3.535L79.346 59.189A24.89 24.89 0 0 1 84.875 72.5H110a2.5 2.5 0 1 1 0 5H84.875C83.615 90.109 72.934 100 60 100c-13.777 0-25-11.223-25-25a24.88 24.88 0 0 1 5.654-15.811L8.232 26.768A2.5 2.5 0 0 1 10 22.5zM60 55a20 20 0 0 0-2.5.178v-.018c-.071.009-.14.024-.211.033a20 20 0 0 0-.332.053 19.97 19.97 0 0 0-2.516.549 20 20 0 0 0-.17.051c-.875.26-1.723.576-2.543.947a20 20 0 0 0-.072.033c-1.403.642-2.723 1.432-3.928 2.367l.043.043a20 20 0 0 0-3.535 3.535l-.043-.043c-1.493 1.922-2.627 4.132-3.342 6.525a20 20 0 0 0-.061.205 19.9 19.9 0 0 0-.559 2.563 20 20 0 0 0-.045.352C40.075 73.234 40 74.107 40 75c0 .878.075 1.736.184 2.584a20 20 0 0 0 .088.574 19.97 19.97 0 0 0 .523 2.404 20 20 0 0 0 .025.096 19.82 19.82 0 0 0 .961 2.582 20 20 0 0 0 .086.178 19.9 19.9 0 0 0 1.307 2.391 20 20 0 0 0 .004.006 19.95 19.95 0 0 0 1.695 2.268 20 20 0 0 0 .041.045c.607.698 1.261 1.352 1.959 1.959a20 20 0 0 0 .045.041 19.95 19.95 0 0 0 2.268 1.695 20 20 0 0 0 .006.004 19.9 19.9 0 0 0 2.391 1.307 20 20 0 0 0 .178.086 19.82 19.82 0 0 0 2.582.961 20 20 0 0 0 .096.025 19.97 19.97 0 0 0 2.404.523 20 20 0 0 0 .574.088c.848.109 1.706.184 2.584.184s1.738-.076 2.586-.186a20 20 0 0 0 .488-.066 19.86 19.86 0 0 0 5.131-1.516 20 20 0 0 0 .17-.074c.847-.39 1.66-.834 2.438-1.334 1.578-1.014 2.996-2.245 4.227-3.65a20 20 0 0 0 .145-.168 19.93 19.93 0 0 0 2.928-4.547 20 20 0 0 0 .121-.258c.354-.789.661-1.604.912-2.443a20 20 0 0 0 .1-.379 19.94 19.94 0 0 0 .477-2.186 20 20 0 0 0 .088-.51c.008-.062.024-.121.031-.184h-.018A20 20 0 0 0 80 75a20 20 0 0 0-.162-2.5h.002c-.003-.025-.009-.049-.012-.074a20 20 0 0 0-.184-1.156c-.01-.054-.017-.109-.027-.162a20 20 0 0 0-.252-1.096c-.045-.178-.096-.353-.146-.529a20 20 0 0 0-.172-.564l-.209-.631c-.003-.008-.005-.017-.008-.025a20 20 0 0 0-.061-.158c-.2-.548-.423-1.084-.668-1.607l-.021-.047a20 20 0 0 0-.006-.014c-.133-.282-.274-.558-.42-.832-.005-.01-.01-.021-.016-.031a20 20 0 0 0-.023-.039 19.9 19.9 0 0 0-1.551-2.447c-.087-.118-.168-.242-.258-.357l-.012.012a20 20 0 0 0-3.535-3.535l.012-.012c-.116-.09-.24-.17-.357-.258a19.9 19.9 0 0 0-2.447-1.551c-.013-.007-.026-.016-.039-.023a20 20 0 0 0-.031-.016c-.274-.146-.55-.287-.832-.42a20 20 0 0 0-.061-.027c-.524-.245-1.06-.468-1.607-.668-.053-.019-.105-.042-.158-.061a20 20 0 0 0-.025-.008 19.87 19.87 0 0 0-.631-.209 20 20 0 0 0-.564-.172l-.529-.146a20 20 0 0 0-1.096-.252c-.054-.011-.108-.017-.162-.027a20 20 0 0 0-1.156-.184c-.025-.003-.049-.009-.074-.012v.002A20 20 0 0 0 60 55z"/></svg>