<svg xmlns="http://www.w3.org/2000/svg">
<path d="M145.322.01a5 5 0 0 0-4.482 2.216l-40.819 61.229a30 30 0 0 1 4.503 11.273L149.16 7.773A5 5 0 0 0 145.322.01zM4.03.095A5 5 0 0 0 .84 7.773l44.673 67.01a30 30 0 0 1 4.48-11.307L9.16 2.227A5 5 0 0 0 5.98.097 5 5 0 0 0 4.03.095zM68.458 109.2l2.382 3.573a5 5 0 0 0 8.32 0l2.382-3.573A30 30 0 0 1 75 110a30 30 0 0 1-6.543-.8z"/>
<path d="M75 0a5 5 0 0 0-5 5v45.466a30 30 0 0 1 5-.465 30 30 0 0 1 5 .428V5a5 5 0 0 0-5-5zm16.536 105A30 30 0 0 1 75 110a30 30 0 0 1-5-.465V110a5 5 0 0 0 5 5h70a5 5 0 0 0 3.536-8.535A5 5 0 0 0 145 105z"/>
<circle cx="75" cy="80" r="30" fill="none" stroke="#000" stroke-linejoin="round" stroke-width="10"/>
<circle cx="75" cy="80" r="7.5"/>
</svg>