<svg xmlns="http://www.w3.org/2000/svg" viewBox="0 0 114.903 165.097">
<path d="M57.452 0a7.4 7.4 0 0 0-5.269 2.211 7.6 7.6 0 0 0-2.182 5.338v39.465l14.903-11.178V7.55a7.6 7.6 0 0 0-2.182-5.338C61.324.796 59.429 0 57.452 0zm-49.5.017a7.36 7.36 0 0 0-2.884.379C3.196 1.037 1.651 2.405.774 4.2a7.64 7.64 0 0 0-.382 5.766L20.194 69.37l12.583-9.437L14.512 5.134C13.548 2.242 10.959.222 7.952.017zm99.001 0c-3.007.205-5.596 2.224-6.56 5.117l-1.816 5.448 7.165-5.374c.733-.549 1.679-.713 2.55-.443s1.565.943 1.87 1.813.183 1.835-.326 2.601L88.254 41.551 75.559 79.637h15.729l23.224-69.672a7.64 7.64 0 0 0-.382-5.766c-.877-1.794-2.422-3.162-4.294-3.803a7.36 7.36 0 0 0-2.883-.379zm-42.049 76.56l-2.04 3.06h2.04zm-39.346 8.885l8.828 26.483 10.485-15.729-3.584-10.754zm24.442 0v3.06l2.04-3.06zm32.995 19.054l-40.868 30.652 8.266 24.797a7.54 7.54 0 0 0 1.087 1.205 7.51 7.51 0 0 0 2.067 2.289 7.4 7.4 0 0 0 2.375.997 7.4 7.4 0 0 0 1.53.642h50c4.115 0 7.451-3.379 7.452-7.548a7.6 7.6 0 0 0-2.182-5.338 7.4 7.4 0 0 0-5.269-2.211H67.834zm24.457-96.967L14.575 77.207c-1.014.761-1.432 2.094-1.037 3.308s1.515 2.034 2.776 2.034H98.59c1.262 0 2.381.82 2.776 2.034s-.023 2.548-1.037 3.308L7.452 157.549"/>
</svg>