<svg xmlns="http://www.w3.org/2000/svg" width="566.929" height="566.929" viewBox="0 0 150 150"><path d="M17.064.372C7.817.372.372 7.92.372 17.296v116.153c0 9.375 7.444 16.923 16.691 16.923h116.618c9.247 0 16.691-7.548 16.691-16.923V17.296c0-9.375-7.444-16.923-16.691-16.923zm52.35 64.95h2.448a3.522 3.571 0 0 1 3.317 2.372l14.665 41.709a.885.898 0 0 0 1.668 0l14.665-41.709a3.522 3.571 0 0 1 3.317-2.372h2.098a2.483 2.518 0 0 1 2.483 2.518v41.523a1.029 1.043 0 0 0 1.756.737l19.784-20.059a2.483 2.518 0 0 1 3.512 0l.84.852a2.485 2.519 0 0 1 .001 3.562L124.553 110.1a1.029 1.044 0 0 0 .728 1.781h12.331a2.483 2.518 0 0 1 2.483 2.518v1.205a5.995 6.079 0 0 1-1.756 4.298l-19.784 20.059a2.483 2.518 0 0 1-3.512 0l-.841-.852a2.49 2.524 0 0 1-.005-3.565l15.342-15.636a1.032 1.047 0 0 0-.732-1.785h-19.176a2.483 2.518 0 0 1-2.483-2.518V87.129a.438.444 0 0 0-.849-.152l-10.332 28.779a3.547 3.596 0 0 1-3.333 2.366h-4.266a3.547 3.596 0 0 1-3.333-2.366L67.779 67.688a1.739 1.763 0 0 1 1.634-2.366z"/></svg>